<?xml version="1.0" encoding="utf-8"?>
<!DOCTYPE svg PUBLIC "-//W3C//DTD SVG 1.1//EN" "http://www.w3.org/Graphics/SVG/1.1/DTD/svg11.dtd">
<svg version="1.1" id="Layer_1" xmlns="http://www.w3.org/2000/svg" xmlns:xlink="http://www.w3.org/1999/xlink" x="0px" y="0px"
	 width="48px" height="48px" viewBox="0 0 48 48" enable-background="new 0 0 48 48" xml:space="preserve">
<path fill="#ffffff" d="M24,6C14.06,6,6,14.06,6,24c0,9.939,8.06,18,18,18c1.66,0,3-1.34,3-3c0-0.78-0.29-1.48-0.779-2.01
	c-0.471-0.53-0.75-1.221-0.75-1.99c0-1.66,1.34-3,3-3H32c5.52,0,10-4.48,10-10C42,13.16,33.939,6,24,6z M13,24c-1.66,0-3-1.34-3-3
	s1.34-3,3-3s3,1.34,3,3S14.66,24,13,24z M19,16c-1.66,0-3-1.34-3-3s1.34-3,3-3s3,1.34,3,3S20.66,16,19,16z M29,16
	c-1.66,0-3-1.34-3-3s1.34-3,3-3s3,1.34,3,3S30.66,16,29,16z M35,24c-1.66,0-3-1.34-3-3s1.34-3,3-3s3,1.34,3,3S36.66,24,35,24z"/>
</svg>
