<?xml version="1.0" encoding="utf-8"?>
<!-- Generator: Adobe Illustrator 24.1.1, SVG Export Plug-In . SVG Version: 6.00 Build 0)  -->
<svg version="1.1" id="Layer_1" xmlns="http://www.w3.org/2000/svg" xmlns:xlink="http://www.w3.org/1999/xlink" x="0px" y="0px"
	 viewBox="0 0 415.1 64.8" style="enable-background:new 0 0 415.1 64.8;" xml:space="preserve">
<style type="text/css">
	.st0{fill:#FFFFFF;}
	.st1{fill:#999E35;}
	.st2{fill:none;}
	.st3{fill:#A1B000;}
	.st4{fill:#687C12;}
	.st5{fill:#7C8C00;}
	.st6{fill:#899D00;}
	.st7{fill:#B2C22D;}
</style>
<g>
	<g>
		<path class="st0" d="M49.6,44.2c-1-0.3-1.8-0.7-2.3-1l0.4-3c0.5,0.4,1.2,0.8,2.2,1.2c1,0.4,2,0.6,3.2,0.6c1.1,0,1.9-0.2,2.5-0.6
			c0.6-0.4,0.9-0.9,0.9-1.6c0-0.8-0.3-1.4-1-1.8c-0.7-0.4-1.5-0.8-2.5-1c-1.1-0.3-2-0.6-2.7-0.9s-1.4-0.8-1.9-1.5
			c-0.5-0.7-0.8-1.5-0.8-2.6c0-1.5,0.5-2.7,1.6-3.7c1.1-1,2.7-1.5,4.9-1.5c1,0,1.9,0.1,2.6,0.3c0.7,0.2,1.4,0.5,2.1,0.8l-0.4,2.9
			c-0.6-0.5-1.2-0.8-1.9-1.1c-0.7-0.3-1.5-0.4-2.3-0.4c-1,0-1.8,0.2-2.4,0.6c-0.6,0.4-0.9,1-0.9,1.7c0,0.5,0.1,0.9,0.4,1.2
			c0.3,0.3,0.7,0.6,1.2,0.8c0.5,0.2,1.3,0.5,2.4,0.8c1.3,0.4,2.5,1,3.4,1.7c1,0.7,1.5,1.9,1.5,3.4c0,1.4-0.5,2.6-1.5,3.6
			c-1,1-2.7,1.5-5.1,1.5C51.8,44.7,50.6,44.5,49.6,44.2z"/>
		<path class="st0" d="M66,43.5c-1.4-0.8-2.4-1.9-3.2-3.3c-0.7-1.4-1.1-2.9-1.1-4.6c0-1.6,0.3-3.1,1-4.4s1.6-2.4,2.9-3.2
			c1.3-0.8,2.8-1.2,4.5-1.2c2.2,0,4,0.6,5.3,1.9c1.4,1.3,2,3.1,2,5.3c0,0.6,0,1.1-0.1,1.7H65c0.2,2.2,0.9,3.8,2,4.7
			c1.1,0.9,2.6,1.4,4.4,1.4c1.8,0,3.4-0.3,4.9-1l0.4,2.5c-2,0.9-3.9,1.3-5.7,1.3C69.1,44.7,67.4,44.3,66,43.5z M74.3,33.6
			c0-1.2-0.4-2.2-1.1-2.9c-0.7-0.7-1.8-1-3.1-1c-1.4,0-2.4,0.3-3.2,1s-1.3,1.7-1.6,3H74.3z"/>
		<path class="st0" d="M80.7,27.2h2.5l0.4,1.8c0.9-0.8,1.8-1.4,2.7-1.7c0.9-0.3,1.9-0.5,2.9-0.5c4.7,0,7,2.7,7,8v9.5H93v-9.5
			c0-1.8-0.3-3.2-1-4c-0.7-0.8-1.8-1.2-3.4-1.2c-1,0-2,0.2-2.8,0.6c-0.8,0.4-1.5,0.9-1.9,1.7v12.5h-3.2V27.2z"/>
		<path class="st0" d="M102.5,43.5c-0.7-0.8-1.1-1.8-1.1-2.9v-11h-2.9l0.3-2.5h2.7v-4.2l3.2-0.3v4.5h4.5v2.5h-4.5v9
			c0,1.2,0.1,2,0.2,2.5s0.4,0.7,0.9,0.9s1.3,0.2,2.5,0.2h0.8l-0.2,2.5h-2.8C104.4,44.7,103.3,44.3,102.5,43.5z"/>
		<path class="st0" d="M111.8,19.8h3.2v3.5h-3.2V19.8z M111.8,27.2h3.2v17.2h-3.2V27.2z"/>
		<path class="st0" d="M119.2,27.2h2.5L122,29c0.9-0.8,1.8-1.4,2.7-1.7c0.9-0.3,1.9-0.5,2.9-0.5c4.7,0,7,2.7,7,8v9.5h-3.1v-9.5
			c0-1.8-0.3-3.2-1-4s-1.8-1.2-3.4-1.2c-1,0-2,0.2-2.8,0.6s-1.5,0.9-1.9,1.7v12.5h-3.2V27.2z"/>
		<path class="st0" d="M142,43.5c-1.4-0.8-2.4-1.9-3.2-3.3c-0.7-1.4-1.1-2.9-1.1-4.6c0-1.6,0.3-3.1,1-4.4s1.6-2.4,2.9-3.2
			c1.3-0.8,2.8-1.2,4.5-1.2c2.2,0,4,0.6,5.3,1.9c1.4,1.3,2,3.1,2,5.3c0,0.6,0,1.1-0.1,1.7h-12.4c0.2,2.2,0.9,3.8,2,4.7
			c1.1,0.9,2.6,1.4,4.4,1.4c1.8,0,3.4-0.3,4.9-1l0.4,2.5c-2,0.9-3.9,1.3-5.7,1.3C145,44.7,143.4,44.3,142,43.5z M150.3,33.6
			c0-1.2-0.4-2.2-1.1-2.9c-0.7-0.7-1.8-1-3.1-1c-1.4,0-2.4,0.3-3.2,1c-0.8,0.7-1.3,1.7-1.6,3H150.3z"/>
		<path class="st0" d="M157.7,43.5c-0.7-0.8-1.1-1.8-1.1-2.9V18.1h3.2v20.7c0,1,0.1,1.8,0.2,2.2c0.1,0.5,0.4,0.8,0.8,0.9
			s1,0.2,1.8,0.2l-0.5,2.5h-1C159.6,44.7,158.4,44.3,157.7,43.5z"/>
		<path class="st0" d="M178.1,29c1.1,1.4,1.7,3.4,1.7,5.8v9.6h-3.2v-9.2c0-1.9-0.3-3.3-1-4.2c-0.7-0.9-1.8-1.3-3.2-1.3
			c-0.9,0-1.7,0.2-2.5,0.6c-0.7,0.4-1.4,1-1.9,1.7v12.4h-3.2V18.1h3.2v10.7c0.7-0.7,1.4-1.1,2.2-1.5c0.8-0.3,1.7-0.5,2.8-0.5
			C175.3,26.8,177,27.5,178.1,29z"/>
		<path class="st0" d="M185.4,42.8c-1.1-1.2-1.6-3.1-1.6-5.7v-10h3.1v9.1c0,1.9,0.3,3.3,1,4.2s1.7,1.4,3,1.4c0.8,0,1.6-0.2,2.3-0.5
			c0.7-0.3,1.2-0.8,1.6-1.5V27.2h3.2v17.2h-2.8l-0.3-1.9c-0.6,0.8-1.2,1.3-2,1.7c-0.8,0.4-1.7,0.5-2.8,0.5
			C188,44.7,186.5,44,185.4,42.8z"/>
		<path class="st0" d="M214.8,28c1.2,0.8,2.1,1.9,2.7,3.3c0.6,1.4,0.9,2.8,0.9,4.4c0,1.6-0.3,3.1-1,4.5c-0.7,1.4-1.6,2.4-2.8,3.2
			s-2.5,1.2-3.9,1.2c-1,0-2.1-0.2-3-0.6c-1-0.4-1.7-1-2.3-1.8l-0.3,2.1h-2.8V18.1h3.1v11.1c0.6-0.7,1.4-1.3,2.4-1.7
			c0.9-0.4,1.9-0.6,3-0.6C212.2,26.8,213.6,27.2,214.8,28z M213.9,40.1c0.9-1.2,1.3-2.6,1.3-4.4c0-1.8-0.4-3.2-1.3-4.4
			c-0.9-1.2-2.1-1.7-3.6-1.7c-1.4,0-2.7,0.5-3.6,1.6c-1,1.1-1.5,2.6-1.5,4.5c0,2,0.5,3.6,1.5,4.6c1,1,2.2,1.5,3.7,1.5
			C211.8,41.9,213,41.3,213.9,40.1z"/>
	</g>
</g>
<g>
	<path class="st1" d="M28.1,17.3L28.1,17.3c0.6,0.3,1,0.4,1.5,0.8l0,0c0,0,0.1,0.1,0.1,0.1c1,0.6,1.9,1.2,2.8,2
		c0.8,0.7,1.6,1.5,2.2,2.4c0.7,0.9,1.2,1.8,1.7,2.8c0.5,1,0.8,2,1.1,3c0.3,1,0.5,2.1,0.5,3.2c0.1,1.1,0,2.2-0.1,3.2
		c-0.1,1.1-0.4,2.2-0.7,3.2c-0.4,1.1-0.8,2.1-1.4,3.1L22.4,64.6L12.7,59l12.9-22.4c0.2-0.4,0.4-0.7,0.7-1.1c2.2-3.9,3.6-7.9,4-11.3
		c0.2-1.7,0.1-3.1-0.3-4.3C29.7,18.7,29.1,17.8,28.1,17.3C28.2,17.3,28.1,17.3,28.1,17.3L28.1,17.3L28.1,17.3z"/>
	<g>
		<path class="st2" d="M38.2,31.5c-0.1-1.1-0.3-2.1-0.5-3.2c-0.3-1-0.7-2.1-1.1-3c-0.5-1-1-1.9-1.7-2.8c-0.7-0.9-1.4-1.7-2.2-2.4
			c-0.8-0.7-1.8-1.4-2.8-2c-0.1,0-0.1-0.1-0.1-0.1l0,0c-0.6-0.3-0.9-0.5-1.5-0.8h0l0,0l0,0c0,0,0.1,0,0.1,0c0.9,0.5,1.5,1.4,1.9,2.6
			c0.3,1.2,0.4,2.6,0.3,4.3c-0.4,3.4-1.8,7.4-4,11.3c-0.2,0.4-0.4,0.7-0.7,1.1l-5.3,9.2c4,0.3,7.5,2.1,10.2,4.7l5.4-9.4
			c0.6-1,1-2,1.4-3.1c0.3-1,0.6-2.1,0.7-3.2C38.2,33.7,38.3,32.6,38.2,31.5z"/>
		<path class="st3" d="M12.7,59l9.7,5.6l8.2-14.1c-2.7-2.6-6.3-4.3-10.2-4.7L12.7,59z"/>
	</g>
	<g>
		<path class="st4" d="M37.8,28.9c0-0.2-0.1-0.4-0.1-0.5c-0.3-1-0.7-2.1-1.1-3c-0.5-1-1-1.9-1.7-2.8c-0.7-0.9-1.4-1.7-2.2-2.4
			c-0.8-0.7-1.8-1.4-2.8-2c-0.1,0-0.1-0.1-0.1-0.1l0,0c-0.6-0.3-0.9-0.5-1.5-0.8h0l0,0l0,0c0,0,0.1,0,0.1,0c0.9,0.5,1.5,1.4,1.9,2.6
			c0.2,0.6,0.3,1.4,0.3,2.2C33.5,23.6,36.1,25.9,37.8,28.9z"/>
		<path class="st2" d="M23.3,53.9c-2.4,0-4.7-0.5-6.8-1.5L12.7,59l9.7,5.6l6.8-11.8C27.4,53.5,25.4,53.9,23.3,53.9z"/>
		<path class="st5" d="M29.2,52.8L36,41.1c0.6-1,1-2,1.4-3.1c0.3-1,0.6-2.1,0.7-3.2c0.1-1.1,0.2-2.2,0.1-3.2
			c-0.1-0.9-0.2-1.8-0.4-2.7c-1.7-2.9-4.3-5.3-7.4-6.8c0,0.7,0,1.3-0.1,2.1c-0.4,3.4-1.8,7.4-4,11.3c-0.2,0.4-0.4,0.7-0.7,1.1
			l-9.1,15.8c2.1,0.9,4.4,1.5,6.8,1.5C25.4,53.9,27.4,53.5,29.2,52.8z"/>
	</g>
	<g>
		<path class="st2" d="M38.2,31.5c-0.1-0.9-0.2-1.8-0.4-2.7c-1.7-2.9-4.3-5.3-7.4-6.8c0,0.7,0,1.3-0.1,2.1c0,0.4-0.1,0.8-0.2,1.2
			c4,2.6,6.8,6.9,7.4,11.8c0.2-0.8,0.4-1.6,0.5-2.5C38.2,33.7,38.3,32.6,38.2,31.5z"/>
		<path class="st6" d="M30.1,25.4c-0.5,3.1-1.9,6.7-3.8,10.1c-0.2,0.4-0.4,0.7-0.7,1.1l-9.1,15.8c2.1,0.9,4.4,1.5,6.8,1.5
			c2.1,0,4.1-0.4,5.9-1.1L36,41.1c0.6-1,1-2,1.4-3.1c0.1-0.2,0.1-0.5,0.2-0.7C36.9,32.3,34.1,28,30.1,25.4z"/>
	</g>
	<g>
		<path class="st2" d="M30.1,25.4c-0.2,1.2-0.5,2.4-0.9,3.7c3,3,4.9,7.2,4.9,11.8c0,1.6-0.2,3.1-0.6,4.5l2.5-4.3c0.6-1,1-2,1.4-3.1
			c0.1-0.2,0.1-0.5,0.2-0.7C36.9,32.3,34.1,28,30.1,25.4z"/>
		<path class="st2" d="M29.1,52.8C29.2,52.8,29.2,52.8,29.1,52.8l0.2-0.2C29.3,52.7,29.2,52.7,29.1,52.8z"/>
		<path class="st7" d="M29.2,29.1c-0.7,2.1-1.7,4.2-2.9,6.3c-0.2,0.4-0.4,0.7-0.7,1.1l-9.1,15.8c2.1,0.9,4.4,1.5,6.8,1.5
			c2,0,4-0.4,5.8-1.1c0.1-0.1,0.1-0.1,0.2-0.2l4.1-7.2c0.4-1.4,0.6-2.9,0.6-4.5C34.1,36.3,32.2,32.2,29.2,29.1z"/>
	</g>
	<g>
		<path class="st2" d="M30.1,25.4c-0.2,1.2-0.5,2.4-0.9,3.7c3,3,4.9,7.2,4.9,11.8c0,1.6-0.2,3.1-0.6,4.5l2.5-4.3c0.6-1,1-2,1.4-3.1
			c0.1-0.2,0.1-0.5,0.2-0.7C36.9,32.3,34.1,28,30.1,25.4z"/>
		<path class="st2" d="M29.1,52.8C29.2,52.8,29.2,52.8,29.1,52.8l0.2-0.2C29.3,52.7,29.2,52.7,29.1,52.8z"/>
		<path class="st3" d="M29.2,29.1c-0.7,2.1-1.7,4.2-2.9,6.3c-0.2,0.4-0.4,0.7-0.7,1.1l-9.1,15.8c2.1,0.9,4.4,1.5,6.8,1.5
			c2,0,4-0.4,5.8-1.1c0.1-0.1,0.1-0.1,0.2-0.2l4.1-7.2c0.4-1.4,0.6-2.9,0.6-4.5C34.1,36.3,32.2,32.2,29.2,29.1z"/>
	</g>
	<g>
		<path class="st4" d="M14.8,47.8L14.8,47.8c-0.6-0.3-1-0.4-1.5-0.8l0,0c0,0-0.1-0.1-0.1-0.1c-1-0.6-1.9-1.2-2.8-2
			c-0.8-0.7-1.6-1.5-2.2-2.4c-0.7-0.9-1.2-1.8-1.7-2.8c-0.5-1-0.8-2-1.1-3c-0.3-1-0.5-2.1-0.5-3.2c-0.1-1.1,0-2.2,0.1-3.2
			c0.1-1.1,0.4-2.2,0.7-3.2C5.9,26,6.4,25,6.9,24L20.5,0.5l9.7,5.6L17.2,28.5c-0.2,0.4-0.4,0.7-0.7,1.1c-2.2,3.9-3.6,7.9-4,11.3
			c-0.2,1.7-0.1,3.1,0.3,4.3C13.2,46.4,13.8,47.2,14.8,47.8C14.7,47.7,14.8,47.8,14.8,47.8L14.8,47.8L14.8,47.8z"/>
		<g>
			<path class="st2" d="M4.7,33.5c0.1,1.1,0.3,2.1,0.5,3.2c0.3,1,0.7,2.1,1.1,3c0.5,1,1,1.9,1.7,2.8c0.7,0.9,1.4,1.7,2.2,2.4
				c0.8,0.7,1.8,1.4,2.8,2c0.1,0,0.1,0.1,0.1,0.1l0,0c0.6,0.3,0.9,0.5,1.5,0.8h0l0,0l0,0c0,0-0.1,0-0.1,0c-0.9-0.5-1.5-1.4-1.9-2.6
				c-0.3-1.2-0.4-2.6-0.3-4.3c0.4-3.4,1.8-7.4,4-11.3c0.2-0.4,0.4-0.7,0.7-1.1l5.3-9.2c-4-0.3-7.5-2.1-10.2-4.7L6.9,24
				c-0.6,1-1,2-1.4,3.1c-0.3,1-0.6,2.1-0.7,3.2C4.7,31.4,4.6,32.5,4.7,33.5z"/>
			<path class="st3" d="M30.2,6.1l-9.7-5.6l-8.2,14.1c2.7,2.6,6.3,4.3,10.2,4.7L30.2,6.1z"/>
		</g>
		<g>
			<path class="st2" d="M5.1,36.2c0,0.2,0.1,0.4,0.1,0.5c0.3,1,0.7,2.1,1.1,3c0.5,1,1,1.9,1.7,2.8c0.7,0.9,1.4,1.7,2.2,2.4
				c0.8,0.7,1.8,1.4,2.8,2c0.1,0,0.1,0.1,0.1,0.1l0,0c0.6,0.3,0.9,0.5,1.5,0.8h0l0,0l0,0c0,0-0.1,0-0.1,0c-0.9-0.5-1.5-1.4-1.9-2.6
				c-0.2-0.6-0.3-1.4-0.3-2.2C9.4,41.5,6.8,39.1,5.1,36.2z"/>
			<path class="st2" d="M19.6,11.2c2.4,0,4.7,0.5,6.8,1.5l3.8-6.6l-9.7-5.6l-6.8,11.8C15.5,11.6,17.5,11.2,19.6,11.2z"/>
			<path class="st5" d="M13.7,12.3L6.9,24c-0.6,1-1,2-1.4,3.1c-0.3,1-0.6,2.1-0.7,3.2c-0.1,1.1-0.2,2.2-0.1,3.2
				c0.1,0.9,0.2,1.8,0.4,2.7c1.7,2.9,4.3,5.3,7.4,6.8c0-0.7,0-1.3,0.1-2.1c0.4-3.4,1.8-7.4,4-11.3c0.2-0.4,0.4-0.7,0.7-1.1l9.1-15.8
				c-2.1-0.9-4.4-1.5-6.8-1.5C17.5,11.2,15.5,11.6,13.7,12.3z"/>
		</g>
		<g>
			<path class="st2" d="M4.7,33.5c0.1,0.9,0.2,1.8,0.4,2.7c1.7,2.9,4.3,5.3,7.4,6.8c0-0.7,0-1.3,0.1-2.1c0-0.4,0.1-0.8,0.2-1.2
				C8.8,37,6,32.8,5.3,27.8c-0.2,0.8-0.4,1.6-0.5,2.5C4.7,31.4,4.6,32.5,4.7,33.5z"/>
			<path class="st6" d="M12.7,39.6c0.5-3.1,1.9-6.7,3.8-10.1c0.2-0.4,0.4-0.7,0.7-1.1l9.1-15.8c-2.1-0.9-4.4-1.5-6.8-1.5
				c-2.1,0-4.1,0.4-5.9,1.1L6.9,24c-0.6,1-1,2-1.4,3.1c-0.1,0.2-0.1,0.5-0.2,0.7C6,32.8,8.8,37,12.7,39.6z"/>
		</g>
		<g>
			<path class="st2" d="M12.7,39.6c0.2-1.2,0.5-2.4,0.9-3.7c-3-3-4.9-7.2-4.9-11.8c0-1.6,0.2-3.1,0.6-4.5L6.9,24c-0.6,1-1,2-1.4,3.1
				c-0.1,0.2-0.1,0.5-0.2,0.7C6,32.8,8.8,37,12.7,39.6z"/>
			<path class="st2" d="M13.8,12.3C13.7,12.3,13.7,12.3,13.8,12.3l-0.2,0.2C13.6,12.4,13.7,12.3,13.8,12.3z"/>
			<path class="st7" d="M13.7,35.9c0.7-2.1,1.7-4.2,2.9-6.3c0.2-0.4,0.4-0.7,0.7-1.1l9.1-15.8c-2.1-0.9-4.4-1.5-6.8-1.5
				c-2,0-4,0.4-5.8,1.1c-0.1,0.1-0.1,0.1-0.2,0.2l-4.1,7.2c-0.4,1.4-0.6,2.9-0.6,4.5C8.8,28.7,10.7,32.9,13.7,35.9z"/>
		</g>
		<g>
			<path class="st2" d="M12.7,39.6c0.2-1.2,0.5-2.4,0.9-3.7c-3-3-4.9-7.2-4.9-11.8c0-1.6,0.2-3.1,0.6-4.5L6.9,24c-0.6,1-1,2-1.4,3.1
				c-0.1,0.2-0.1,0.5-0.2,0.7C6,32.8,8.8,37,12.7,39.6z"/>
			<path class="st2" d="M13.8,12.3C13.7,12.3,13.7,12.3,13.8,12.3l-0.2,0.2C13.6,12.4,13.7,12.3,13.8,12.3z"/>
			<path class="st3" d="M13.7,35.9c0.7-2.1,1.7-4.2,2.9-6.3c0.2-0.4,0.4-0.7,0.7-1.1l9.1-15.8c-2.1-0.9-4.4-1.5-6.8-1.5
				c-2,0-4,0.4-5.8,1.1c-0.1,0.1-0.1,0.1-0.2,0.2l-4.1,7.2c-0.4,1.4-0.6,2.9-0.6,4.5C8.8,28.7,10.7,32.9,13.7,35.9z"/>
		</g>
	</g>
</g>
<g>
	<path class="st3" d="M262.4,25.3c-0.2,0-0.3,0.1-0.3,0.2c0,0.1,0,0.1,0.1,0.2V26c-0.4,1.2-0.9,2.2-1.7,3h-0.3
		c0,0.1-0.1,0.2-0.2,0.3v0.4l-1.7,1l0.2,0c0.1,0,0.1,0,0.1-0.1c-0.2,0.6-0.5,0.9-0.9,0.9h0c0,0,0-0.1,0-0.2l-0.1-0.1l-2,1.4l0.1,0.2
		c-0.1,0-0.3,0.1-0.6,0.1l-1.4,0.7c-0.1,0.1-0.3,0.3-0.6,0.5c0,0,0-0.1-0.1-0.2h-0.2c0,0-0.1,0.1-0.1,0.3c-0.5,0.2-1.2,0.5-2.1,0.9
		c-0.5,0.2-1.3,0.5-2.4,0.9c-0.1,0.1-0.2,0.2-0.4,0.3c-0.2,0-0.5,0-0.9,0.1c-0.2,0.1-0.3,0.2-0.4,0.2c0,0-0.1,0-0.2-0.1
		c-0.6,0.4-1,0.6-1.1,0.6c0,0-0.1,0-0.2-0.1l-2.7,1c0-0.1,0-0.1-0.1-0.2l-0.4,0c0.1,0.1,0.1,0.1,0.1,0.3c0,0.3,0,0.7-0.1,1.4
		l0.3,2.7v1.4c-0.1,0-0.2,0.1-0.4,0.2c0.1,0.1,0.2,0.2,0.2,0.4c-0.4,0-0.7,0.1-0.9,0.3c-0.4,0.1-0.8,0.2-1.4,0.5
		c-0.7-0.4-1.3-1.1-1.7-2.1c-0.4-0.9-0.5-1.8-0.5-2.8c0-0.2,0-0.4,0-0.6l0.2-3.6c0-0.1,0.1-0.2,0.1-0.4c0.1-0.2,0.1-0.4,0.1-0.5
		c0.1-0.3,0.1-0.8,0.2-1.5c0.1-0.2,0.1-0.5,0.1-1c0.2-0.4,0.3-0.8,0.3-1.3c0-0.1,0-0.1,0-0.2l1.9-6.2c-0.2,0.1-0.5,0.3-0.9,0.6
		c0,0.1,0.1,0.5,0.2,1.1c0,0-0.1,0.1-0.3,0.2c-0.2,0.1-0.3,0.2-0.4,0.2c-0.1,0-0.1,0.2-0.1,0.4c-0.3,0.2-0.5,0.2-0.6,0.2h0l-0.2,0.2
		l-0.4-0.1c0,0,0,0.2,0,0.4c-0.1-0.1-0.2-0.2-0.4-0.4l-0.2,0.2c-0.7-0.5-1.2-1.3-1.3-2.2c0-0.3,0-0.5,0-0.7s0-0.3,0-0.3
		c0-0.5,0.4-1,1.1-1.6c0.2-0.2,0.7-0.6,1.5-1.1c0.2-0.1,0.7-0.3,1.5-0.7c0-0.1,0.1-0.1,0.1-0.2c0,0,0,0,0,0c0.2-0.1,0.4-0.1,0.6-0.1
		c0.1,0,0.1,0,0.2,0l2-0.8c0.1,0,0.1,0.1,0.2,0.1s0.5-0.2,1.4-0.6c-0.1,0-0.1,0.1-0.1,0.1h0.4c0.1,0,0.1,0,0.1-0.1
		c0.4,0,0.6,0,0.6-0.1l0.9-0.2c0.1,0,0.2,0,0.2,0l0.2-0.2l0.3,0.1c0.2-0.1,0.5-0.3,0.9-0.5h0.3l0.1,0.2c0.2-0.1,0.4-0.2,0.6-0.2
		l2.3-0.4c0.3,0,0.5,0,0.7,0l0.2-0.2h0.6c0,0.1,0.1,0.2,0.2,0.3c0,0,0,0,0,0c0,0,0.1-0.1,0.3-0.2c0.3-0.1,0.5-0.2,0.8-0.2h1.5
		c1.9,0,3.7,0.5,5.6,1.5c1,1,1.5,2.2,1.5,3.8c0,0.2,0,0.3,0,0.5l0.1,0.1V25.3z M258.2,24c0-0.7-0.4-1.2-1.2-1.5
		c-0.1,0-0.5-0.1-1.1-0.1c-0.3,0-0.5-0.1-0.6-0.3l-1.8-0.1c-0.2,0-0.4,0-0.5,0c-0.5,0-1,0.1-1.3,0.2l-0.2-0.1
		c-0.1,0.1-0.4,0.1-0.6,0.1c0,0,0,0.1-0.1,0.1c-0.2-0.1-0.4-0.1-0.5-0.1c-0.4,0-1.7,0.2-4,0.7c-0.2,0-0.8,0.2-1.9,0.6
		c-0.5,0.1-0.7,0.4-0.8,0.7c0.1,0,0.2,0.2,0.2,0.4v0.3l0.2,0.2v0.5l-0.7,3.5c-0.1,0.2-0.1,0.4-0.1,0.5c0,0.1,0,0.1,0,0.2
		c-0.1,0.1-0.2,0.2-0.2,0.3c0,0,0,0,0,0l-0.6,4.3h0.2c0-0.1,0.8-0.6,2.3-1.4c1-0.5,2.8-1.3,5.3-2.2l1.5-0.7c1.5-0.5,3.3-1.7,5.1-3.5
		c0.3-0.4,0.5-0.7,0.7-1C258,24.8,258.2,24.3,258.2,24z M254.7,22.2c-0.2,0-0.5,0-0.6-0.1C254.4,22.2,254.6,22.2,254.7,22.2z
		 M255.2,33.1c0,0-0.1,0.1-0.1,0.2C255.1,33.2,255.1,33.1,255.2,33.1L255.2,33.1z M258.1,31c0,0-0.1,0-0.2,0.1c0,0,0,0,0,0
		S258,31.1,258.1,31C258.1,31,258.1,31,258.1,31C258.1,31,258.1,31,258.1,31z"/>
	<path class="st3" d="M268,22.8l-2.5,21.9c-0.3,0-0.6,0.1-1,0.2c-0.1,0-0.2,0-0.3-0.1l-0.2,0c-0.1,0-0.2,0-0.3,0
		c0,0-0.3-0.2-0.7-0.6c-0.1,0-0.2,0.1-0.3,0.2c-0.1-0.2-0.2-0.4-0.3-0.7c-0.2-1.3-0.3-2-0.3-2.3l1.2-10c0.3-2.7,0.7-6.2,1.1-10.4
		c0.1-0.3,0.2-0.8,0.4-1.6c0.2-0.6,0.4-1.1,0.7-1.4l0.6,0.1c0.3,0.2,0.5,0.4,0.7,0.5c0.1,0.1,0.3,0.4,0.7,0.9
		c0.3,0.9,0.4,1.4,0.4,1.6V22.8z"/>
	<path class="st3" d="M286.2,41.3c-0.2,0.3-0.6,0.7-1,1.2l-0.5-0.1c0,0.1-0.1,0.2-0.2,0.4c-0.1-0.1-0.3-0.2-0.6-0.3c0,0,0,0-0.1,0
		c-0.3,0-0.8-0.3-1.5-0.9c-0.2-0.4-0.6-1-1.2-1.9l-3.7,2.7c0,0,0,0.1,0.1,0.1c0,0.1,0.1,0.1,0.1,0.1c-0.1,0.1-0.5,0.4-1.2,0.8
		c-2,0.6-3,0.9-3,1c-1.4,0-2.6-0.6-3.4-1.7c-0.4-1.1-0.6-1.9-0.6-2.3c0-0.3,0.4-1.3,1.1-3c0.6-0.7,1.1-1.1,1.4-1.1
		c0.1-0.1,0.8-0.6,2-1.5c0.6-0.2,1.5-0.6,2.8-1.2c1.3-0.3,2-0.5,2-0.5h0c0.1,0,0.3,0,0.7,0.1c0.3,0,0.6,0,0.7,0c0.1,0,0.1,0,0.2,0
		c0.6,0.2,0.8,0.5,0.8,0.8c0,0,0,0.1,0,0.1c0.1,0.1,0.4,0.5,0.7,1.2c0.1,0,0.2,0,0.3,0c0.4,0,0.8,0.2,1.2,0.5c0.6,1,1.1,1.9,1.6,2.6
		C285.5,39.5,286,40.5,286.2,41.3z M279.4,37.1h-0.7c-0.3,0-0.8,0.2-1.7,0.5l-1.5,0.6c-0.6,0.3-1.2,0.8-1.9,1.5l-0.1,0.2l0.8,0.1
		c1.9-0.5,3.4-1.3,4.5-2.4C278.8,37.5,279,37.4,279.4,37.1z"/>
	<path class="st3" d="M300.9,37.3c0,1.1-0.5,3.4-1.6,6.9c-0.2,0.5-0.9,2.7-2.3,6.4c0,0.1,0.1,0.1,0.2,0.1H297l-1.3,3.1l-1.5,4.6
		c-0.1,0-0.3,0.3-0.8,0.8c-0.1,0-0.2,0-0.5,0.1l-0.4,0.1c0,0-0.2,0-0.3-0.1c-0.3-0.3-0.7-0.8-1.3-1.4c-0.2-0.8-0.3-1.5-0.4-2.1
		l0.4-2l1.3-3.9l2.6-6.2c0-0.1-0.1-0.2-0.1-0.3c-1,0.3-1.7,0.5-2.1,0.5c-1.5,0-2.7-1-3.7-2.9c-0.7-1.6-1.1-3.2-1.1-4.9
		c0-0.4,0.1-0.9,0.3-1.5c0.2-0.2,0.4-0.5,0.8-0.8h0.2c0.5,0,0.9,0.4,1.3,1.1c0.2,0.3,0.3,0.7,0.4,1.2c0.5,2.2,0.9,3.3,1.2,3.3
		c0.7,0,1.8-0.6,3.1-1.7c1.1-0.9,2-1.8,2.7-2.7c0.1,0,0.3-0.1,0.6-0.3c0.2,0.1,0.4,0.1,0.7,0.1c0.1,0.2,0.4,0.5,0.7,0.9
		c0.1,0,0.2,0.1,0.3,0.1C300.7,36,300.9,36.6,300.9,37.3z"/>
	<path class="st3" d="M317.9,49.3c-0.2,1.9-0.8,3.6-1.8,4.9c-0.1,0.2-0.5,0.6-1.1,1.2c-0.2,0.1-0.5,0.3-1,0.8
		c-0.5,0.3-1,0.5-1.4,0.6c-0.3,0.2-0.7,0.4-1.3,0.7c-0.3,0.1-0.8,0.3-1.4,0.6l-4.5,0.7l-2.2,0.1c-0.1,0-0.2-0.1-0.4-0.1
		c-0.5-0.1-1.1-0.2-1.9-0.5c-0.7-0.2-1.2-0.3-1.4-0.4c-0.2-0.1-0.7-0.5-1.5-1.1c-0.1-0.2-0.4-0.5-0.7-0.8c-0.6-1.3-0.9-2-0.9-2.1v-2
		l1-1.4c0.3-0.2,0.7-0.5,1.4-0.9c0.1,0.1,0.1,0.2,0.1,0.3c0,0.1,0,0.2-0.1,0.4c0,0,0.1,0,0.2,0c0,0,0.1-0.1,0.1-0.2
		c0.1-0.1,0.4-0.1,0.7-0.2l0,0.5l-0.2,0.2c0,0.1,0.1,0.3,0.2,0.5C299.8,51,300,51,300,51c-0.1,0.2-0.3,0.5-0.5,0.9v0.3
		c0,0,0.1,0.1,0.1,0.2c0,0,0,0.1,0,0.2c0,0.2,0,0.6,0.1,1c0,0.1,0.1,0.2,0.3,0.5c0.6,0.5,1,0.7,1.1,0.8c0.3,0.1,1,0.2,1.9,0.3
		l1.2,0.1c0,0,0.2,0,0.5-0.1c0.3-0.1,0.5-0.1,0.5-0.1c0,0,0.1,0,0.2,0s0.1,0,0.2,0c0.3,0,0.9-0.1,1.6-0.2c0.5-0.2,0.9-0.4,1.5-0.6
		c0.9-0.3,1.7-0.6,2.4-1.1c0.2-0.1,0.5-0.4,0.9-0.7c1.5-0.9,2.2-2.7,2.2-5.2l-0.9-5.4l-0.1-0.1h-0.3l-3.8,1.2
		c-0.2-0.1-0.5-0.1-1-0.1c-0.1,0-0.2,0-0.3,0c-0.9,0-2-0.4-3.2-1.2c-1.5-0.9-2.2-1.8-2.2-2.8l0.2-0.6c0-0.1-0.1-0.2-0.1-0.4
		c0-0.7,0.3-1.4,1-2.3c0.6-0.8,1.1-1.2,1.6-1.3c0.8-0.4,1.7-0.7,2.8-0.9c0.1,0,0.9-0.1,2.5-0.4l1.9-0.1c0.6,0.1,1.1,0.3,1.7,0.5
		c0.7,0.2,1.2,0.5,1.7,0.8v0.3c0.4,0.2,0.7,0.6,0.8,1.2c0.1,0.1,0.2,0.3,0.3,0.5c-0.1,0-0.2,0-0.2,0.1c0,0.3,0,0.5,0.1,0.5
		c0,0,0,0,0,0c-0.1,0-0.1-0.1-0.3-0.1l-0.1,0.1c0.2,0.3,0.4,0.8,0.7,1.4c0,0,0,0.1,0,0.1c0,0,0,0.1,0,0.1c0.1,0.9,0.3,2.6,0.7,5.1
		l0.4,2.9L317.9,49.3z M299.1,49.7C299.1,49.7,299.1,49.7,299.1,49.7c-0.1,0.1-0.1,0.1-0.1,0.1c0,0-0.1,0-0.1,0
		C299.1,49.7,299.1,49.7,299.1,49.7z M313.2,36.8l-1.4-0.1l-2.7,0.2c0,0,0,0,0,0c0,0-0.7,0.3-2.2,0.8l-0.5,0.4c0,0,0,0.1,0.1,0.2
		c1,0.2,1.7,0.4,2.1,0.4c0.7,0,1.5-0.2,2.5-0.5C312.3,37.8,313,37.3,313.2,36.8z"/>
	<path class="st3" d="M338.7,34.2c0,0-0.2,0.1-0.4,0.2c0,0.1,0,0.2,0,0.2l0.3,0.3c-0.4,0.1-0.8,0.3-1.3,0.5l-2.6-0.6
		c-0.5,0-1.1,0.1-1.8,0.2c-0.9,0.3-1.7,0.6-2.5,0.8c-1.4,0.6-2.8,1.1-4,1.7c-1.6,0.7-2.6,1.8-3,3.3c0,0.1,0,0.4,0.1,1.1v0.5
		c-0.1,0.2-0.2,0.3-0.2,0.4c0,0,0,0.1,0,0.1c0,0.1,0.1,0.2,0.2,0.3l-1.4,0.9h-0.3c-0.2-0.1-0.4-0.3-0.7-0.6l-0.4,0.1
		c-0.1-0.2-0.3-0.4-0.5-0.7c-0.1-0.2-0.2-0.5-0.3-0.6l-0.2-0.9v-1.2c0,0,0-0.1,0-0.2c0-0.1,0-0.1,0-0.2v-1.3c0-0.4,0.1-1,0.4-1.9
		c0.3-1.2,0.7-1.7,1.1-1.7h0.4l0.5,0.4h0.2c0.2,0,1.1-0.5,2.6-1.4c1-0.4,2.5-1.1,4.6-2c0.1,0,0.5-0.2,1.4-0.6c0.2,0,0.6-0.1,1.3-0.2
		l1-0.2h1.4c1,0,2.1,0.6,3.4,2c0,0.1,0.1,0.2,0.1,0.3c0.2,0.3,0.3,0.5,0.3,0.7V34.2z"/>
	<path class="st3" d="M356.8,37.5c0,0.7-0.2,1.3-0.6,1.8c0,0.1-0.1,0.3-0.2,0.6c-0.3,0.4-0.8,1-1.5,1.8c-1,0.7-2,1.3-2.9,1.8
		c-2.1,0.7-3.7,1.1-4.8,1.1h-0.9c-0.1,0-0.2,0-0.3-0.1c0,0,0,0,0,0c-0.2,0-1-0.2-2.2-0.5c-0.5-0.3-1.2-0.9-2.2-1.6
		c-0.1-0.3-0.4-0.7-0.7-1.2c-0.3-1.1-0.5-1.9-0.5-2.5l0.1-1.3v-2c0-0.1,0.1-0.4,0.3-0.9c0.2-0.5,0.3-0.9,0.3-1.2
		c0.2-0.5,0.9-1.1,2.1-1.9c0.2-0.1,0.5-0.2,1-0.3c0.1-0.1,0.3-0.1,0.5-0.2c0,0,0.1,0.1,0.2,0.1l0.8-0.2c0.5-0.2,1-0.3,1.4-0.3h2.7
		c0.3,0,0.6,0.1,1,0.2c0,0,0,0,0.1,0c0.7,0,1.9,0.6,3.8,1.8v0.3c0.3,0.3,0.7,0.6,1.2,0.9c0.2,0.2,0.6,1,1.2,2.3
		C356.8,36.3,356.8,36.9,356.8,37.5z M353.6,36.6v-0.4c-0.7-1.2-1.4-1.8-2-1.8c0,0-0.1,0-0.1,0c0,0-0.1,0-0.1,0h-0.2
		c-0.2-0.3-0.6-0.4-1.3-0.4c-0.1,0-0.2,0-0.2,0l-1.5,0.1l-3.4,0.6l-0.2,0.2v0.5c0,0.1,0,0.2,0.1,0.4c0,0.1-0.1,0.2-0.3,0.3
		c0.1,0.2,0.1,0.3,0.2,0.3c-0.2,0.1-0.3,0.2-0.4,0.3c0,0-0.1,0.2-0.4,0.7c-0.3,0.5-0.4,0.8-0.4,0.9c0,0,0,0.1,0.1,0.3
		c0.3,0.3,0.7,0.6,1.4,0.9c0.6,0.3,1.2,0.4,1.7,0.4c1.1-0.2,1.7-0.3,1.9-0.3l2.2-0.9c1.1-0.4,1.8-0.8,2.2-1.2
		C353.4,37.2,353.6,36.9,353.6,36.6z"/>
	<path class="st3" d="M372.5,35.2c-0.1,0.6-0.3,1.6-0.7,3c-0.2,0.6-0.5,1.5-1.2,2.5c-0.7,0.9-1.2,1.5-1.5,1.9
		c-0.7,0.7-1.4,1.1-2,1.2c-0.3,0.1-0.7,0.2-1.2,0.5c-0.9,0.2-1.4,0.2-1.5,0.2c-2.1,0-4-1.6-5.5-4.9c-0.2-0.8-0.2-1.5-0.2-2.1
		c0-0.3,0.1-0.9,0.3-1.6c0.6-0.4,1-0.6,1.1-0.6h0c1.1,0.6,1.7,1.4,1.8,2.5c0,0.5,0.3,1.1,0.9,1.8c0.6,0.3,1,0.5,1,0.5h0.5
		c0.1,0,0.5-0.2,1.2-0.4c0.9-0.6,1.6-1.1,1.9-1.4c0.7-0.6,1.1-1.3,1.2-1.9c0.1-0.4,0.4-1.3,0.9-2.7c0.3-1,0.6-1.6,0.9-2
		c0,0,0.1,0,0.2,0c0.1,0,0.2,0,0.2,0h0.4c0,0.1,0.2,0.2,0.4,0.4c0.2,0.3,0.5,0.8,0.9,1.4c0,0.1,0,0.2,0,0.4c0,0.1,0,0.3,0,0.5
		c0,0.1,0,0.2,0,0.2C372.4,35,372.4,35.1,372.5,35.2z"/>
	<path class="st3" d="M388.7,36.3l-0.1,2.3l-0.4,4.6l-0.6,1.6c-0.1,0-0.3,0.2-0.5,0.3h-0.2c-0.1,0-0.2-0.1-0.3-0.2h-0.2l-0.2,0.1
		c-0.2-0.2-0.5-0.4-1-0.8c-0.1-0.3-0.3-0.8-0.5-1.4l0-1.5l0.3-4v-1c0-0.1-0.1-0.2-0.2-0.3c-0.9,0.4-1.5,0.7-1.9,0.9l-2.8,3
		c-1.1,1.2-2,2.4-2.6,3.5c-0.3,0.1-0.6,0.2-0.9,0.2c-0.1,0-0.3-0.1-0.6-0.2l-0.1,0.2c-0.1,0-0.2,0-0.5-0.1v-0.4l-0.4-0.2
		c0,0-0.2,0.1-0.4,0.2c-0.1-0.2-0.2-0.5-0.3-0.9c0-0.6-0.1-0.9-0.1-1.1v0l0.2-1.8c0-0.4,0.1-0.9,0.2-1.4c0.1-0.4,0.2-1.1,0.4-2
		c0.1-0.7,0.4-1.7,0.8-2.8l0.7-0.3c0.1,0,0.3,0.1,0.6,0.1c0,0.2,0.1,0.4,0.3,0.5c0.2,0.2,0.4,0.4,0.4,0.4c0.1,0.4,0.2,0.6,0.4,0.9
		c0,0.2,0.1,0.7,0.3,1.2c1.6-0.9,2.7-1.8,3.2-2.6c0.2-0.1,0.4-0.2,0.8-0.6c0.8-0.5,1.6-0.9,2.4-1.3c0.5-0.1,0.8-0.2,1.1-0.2
		c0.1,0,0.6,0.2,1.3,0.7C387.7,33,388.3,34.4,388.7,36.3z"/>
	<path class="st3" d="M409.7,40c0,0-0.1,0.2-0.4,0.3c-0.3,0.2-0.4,0.4-0.4,0.6c0,0.1,0,0.3,0.1,0.4c-0.1,0.1-0.4,0.3-0.8,0.6
		c-0.5,0.3-0.9,0.5-1,0.6c-0.6,0.2-1.4,0.6-2.5,1.1l-0.4,0.1c-0.3,0-0.5,0.1-0.6,0.1l-1.4,0.3c-0.6,0-1.1,0-1.5,0.1l-0.6,0.1
		l-1.4-0.1c0,0,0,0,0,0c0,0-0.1,0-0.2,0.1c-0.2,0-0.5,0.1-1.1,0.1l-0.8,0c0,0,0,0-0.1,0c-0.5,0-1.7-0.2-3.4-0.7
		c-0.4-0.1-1-0.3-1.6-0.7c-0.4-0.3-0.7-0.7-0.8-1.1c-0.4-0.3-0.5-0.7-0.5-1.2c0-0.4,0.1-1.2,0.4-2.2c0.1-0.2,0.4-0.5,0.7-0.8
		c2.1-1.5,5.1-2.6,8.9-3.4c0.2,0,1.1-0.2,2.9-0.5c0.2,0,0.4-0.1,0.5-0.2l0.4-11.8c0,0,0-0.1,0.1-0.3c0.1-0.6,0.2-1.2,0.4-2
		c0.7-1,1.4-1.5,2.1-1.5c1,0.5,1.5,1.4,1.5,2.7c0,0.1,0,0.2,0,0.4c0,0.1,0,0.2,0.1,0.4c0.1,0,0.1,0.1,0.2,0.3l-0.1,14.2l-0.5,1.8
		c0,0-0.1,0-0.2,0c-0.1,0-0.3,0-0.6,0c-0.3,0.3-0.6,0.5-1,0.5c0,0-0.2,0-0.6-0.1c-0.4-0.1-0.6-0.1-0.6-0.1l-4.5,0.5
		c-0.1,0-0.3-0.1-0.3-0.2l-3.1,1.1c0,0,0,0.1-0.1,0.1l3.7,0.2l2.7-0.1l4.5-0.6c0.3,0.1,0.6,0.1,0.8,0.1c0.1,0,0.3,0,0.4,0l0.2,0.3
		l-0.2,0.3C409.2,39.8,409.4,39.9,409.7,40z"/>
</g>
</svg>
